<?xml version="1.0" encoding="UTF-8"?>
<svg version="1.1" xmlns="http://www.w3.org/2000/svg" width="2400" height="1149">
<path d="M0 0 C1.10190674 0.76654907 1.10190674 0.76654907 2.22607422 1.54858398 C4.40234375 3.17578125 4.40234375 3.17578125 6.44189453 5.05493164 C12.52483553 10.52674597 18.06128094 11.41931818 26.0980835 12.06896973 C29.6626889 12.36276345 33.21502328 12.76848825 36.76953125 13.1640625 C37.49395416 13.24276581 38.21837708 13.32146912 38.9647522 13.40255737 C98.28049082 20.04461308 156.97616451 47.5892445 201.40234375 87.17578125 C201.89895508 87.61599609 202.39556641 88.05621094 202.90722656 88.50976562 C203.90922029 89.40172885 204.90777006 90.29757596 205.90283203 91.19726562 C206.90641113 92.10313383 207.9179406 93.00026753 208.93701172 93.88867188 C211.65520154 96.31758167 213.80065037 98.65183994 215.77734375 101.72265625 C218.74125689 105.97045263 221.55309994 109.12094186 226.40234375 111.17578125 C236.01263589 112.7887688 245.84329056 112.3312832 255.55418396 112.1769104 C264.71248344 112.06975823 273.64852204 113.24912057 282.7109375 114.45703125 C284.6074699 114.70134219 286.50464308 114.94071719 288.40234375 115.17578125 C289.53575195 115.31862549 290.66916016 115.46146973 291.83691406 115.60864258 C292.98643555 115.73005615 294.13595703 115.85146973 295.3203125 115.9765625 C296.36598389 116.09427002 297.41165527 116.21197754 298.48901367 116.33325195 C303.09919082 116.08406363 305.42767418 113.64885054 308.7109375 110.61328125 C311.74923551 107.86161513 314.92540115 105.61671475 318.33984375 103.36328125 C318.95802979 102.95376221 319.57621582 102.54424316 320.21313477 102.12231445 C325.61410064 98.59729535 331.14373709 95.2986179 336.71484375 92.05078125 C337.96092407 91.32217896 337.96092407 91.32217896 339.23217773 90.57885742 C340.00634033 90.13388916 340.78050293 89.6889209 341.578125 89.23046875 C342.26817627 88.83327637 342.95822754 88.43608398 343.66918945 88.02685547 C345.40234375 87.17578125 345.40234375 87.17578125 347.40234375 87.17578125 C347.80960693 86.06674438 347.80960693 86.06674438 348.22509766 84.93530273 C349.34334583 82.31407521 350.55834621 80.31201717 352.23828125 78.0234375 C352.80184326 77.25394775 353.36540527 76.48445801 353.94604492 75.69165039 C354.85253784 74.47723267 354.85253784 74.47723267 355.77734375 73.23828125 C356.40294189 72.39579834 357.02854004 71.55331543 357.6730957 70.68530273 C363.2668534 63.22483466 369.17696606 56.11372787 375.40234375 49.17578125 C375.86737305 48.65435547 376.33240234 48.13292969 376.81152344 47.59570312 C385.80468864 37.53896555 395.03292976 27.82357672 405.609375 19.41015625 C408.47076714 17.12104254 411.24474532 14.747281 414.02734375 12.36328125 C425.97513629 2.40936353 438.90121628 -6.14029733 452.40234375 -13.82421875 C453.18641602 -14.27764648 453.97048828 -14.73107422 454.77832031 -15.19824219 C527.1080528 -56.85950019 613.51429581 -66.42299073 693.828125 -45.16015625 C741.25195944 -32.07524931 784.73651481 -8.06234829 821.06640625 25.05859375 C823.17153123 26.96658328 825.30848009 28.82625194 827.46484375 30.67578125 C837.32962881 39.28757949 845.79033197 49.13751365 854.15234375 59.17578125 C854.69632813 59.81644531 855.2403125 60.45710937 855.80078125 61.1171875 C856.36539062 61.79652344 856.93 62.47585938 857.51171875 63.17578125 C858.12732666 63.90837158 858.74293457 64.64096191 859.37719727 65.39575195 C861.03761962 67.6751045 862.27849802 69.77289897 863.56616211 72.25854492 C867.64964166 80.06601661 867.64964166 80.06601661 874.58905029 85.02789307 C880.83811946 86.27433599 887.14167292 85.82255834 893.46484375 85.48828125 C896.43946364 85.41197441 899.41367456 85.36209306 902.38890076 85.31596375 C904.34817547 85.28513495 906.30733334 85.24558426 908.26625061 85.19709778 C916.10703461 85.04157052 923.25546789 86.04452432 930.96484375 87.48828125 C939.58608995 88.8476252 944.88061751 88.04628565 952.15234375 83.11328125 C954.47032704 81.42056138 956.74771564 79.68543946 959.015625 77.92626953 C963.15936726 74.8871296 967.63228395 72.47973142 972.15234375 70.05078125 C973.07716553 69.55255859 974.0019873 69.05433594 974.95483398 68.54101562 C1010.12155743 49.89914923 1048.88399509 38.46270402 1088.40234375 34.17578125 C1089.170625 34.08151855 1089.93890625 33.98725586 1090.73046875 33.89013672 C1152.6036553 27.09235541 1223.47176876 39.84375686 1276.42089844 73.46411133 C1278.42330734 74.41841416 1278.42330734 74.41841416 1280.52026367 73.43261719 C1283.01191636 71.76871421 1284.90160028 69.78529538 1286.96484375 67.61328125 C1291.28223355 63.20739444 1295.77660798 59.26696115 1300.6015625 55.4296875 C1302.40719298 53.97662085 1304.18382326 52.48638305 1305.921875 50.953125 C1351.40474332 11.06405015 1412.92308751 -11.34677926 1472.40234375 -17.82421875 C1473.27238037 -17.91993164 1474.14241699 -18.01564453 1475.03881836 -18.11425781 C1484.4999989 -19.03073012 1493.96771125 -19.06765704 1503.46484375 -19.07421875 C1504.34706604 -19.07489349 1505.22928833 -19.07556824 1506.13824463 -19.07626343 C1521.40754189 -19.057811 1536.29949614 -18.24152337 1551.40234375 -15.82421875 C1553.01206055 -15.56680908 1553.01206055 -15.56680908 1554.65429688 -15.30419922 C1620.62541919 -4.36441175 1691.06183938 28.72935436 1734.72265625 81.1875 C1736.74189064 83.57771001 1738.88608533 85.83178067 1741.02734375 88.11328125 C1750.10408019 98.09769133 1758.0597262 108.99282272 1765.58984375 120.17578125 C1766.09829834 120.91328613 1766.60675293 121.65079102 1767.13061523 122.41064453 C1769.66016801 126.16909497 1771.72590724 129.75008807 1773.35546875 133.984375 C1775.31569754 138.76892329 1777.12195193 143.06037666 1781.40234375 146.17578125 C1789.52921843 148.84341254 1798.30640811 148.70852713 1806.78076172 148.9921875 C1811.85028843 149.24918387 1816.73797875 150.02137371 1821.71484375 150.98828125 C1822.59205078 151.15666504 1823.46925781 151.32504883 1824.37304688 151.49853516 C1844.38549111 155.47970288 1866.05422751 160.00172313 1884.40234375 169.17578125 C1884.40234375 282.69578125 1884.40234375 396.21578125 1884.40234375 513.17578125 C1092.40234375 513.17578125 300.40234375 513.17578125 -515.59765625 513.17578125 C-515.59765625 375.23578125 -515.59765625 237.29578125 -515.59765625 95.17578125 C-488.24599644 78.08099387 -458.43077647 62.54448572 -426.62329102 55.51879883 C-419.41456525 53.92213607 -415.85537118 51.36584671 -411.16015625 45.73828125 C-409.87659191 44.28895318 -408.59141718 42.84104983 -407.3046875 41.39453125 C-406.68029785 40.67910156 -406.0559082 39.96367188 -405.41259766 39.2265625 C-398.67039891 31.60825883 -391.30479888 24.6709604 -383.328125 18.359375 C-381.5467121 16.93475439 -379.79678589 15.46957052 -378.0859375 13.9609375 C-302.6712136 -52.20584945 -191.23816851 -70.32372935 0 0 Z " fill="#191919" transform="translate(515.59765625,635.82421875)"/>
</svg>
