<?xml version="1.0" encoding="UTF-8"?>
<svg version="1.1" xmlns="http://www.w3.org/2000/svg" width="2400" height="1149">
<path d="M0 0 C0.79397186 0.04323395 1.58794373 0.0864679 2.40597534 0.13101196 C61.48588846 3.44408945 120.36212127 17.07889461 174.4375 41.25 C175.54931641 41.74226074 176.66113281 42.23452148 177.80664062 42.74169922 C193.32148809 49.64507491 208.28864555 57.16105591 222.92285156 65.77587891 C225.22615897 67.12610902 227.54222717 68.44924114 229.8671875 69.76171875 C256.30374684 84.79281755 281.41535537 103.39963311 303.85546875 123.9140625 C305.95466131 125.81318073 308.07439666 127.67862837 310.2109375 129.53515625 C319.98795041 138.07389235 329.69150497 146.88446309 338.203125 156.69921875 C340.49032159 159.31030157 342.84800283 161.83927003 345.22631836 164.36694336 C352.2410171 171.83000635 359.12816242 179.38952304 364.9296875 187.85546875 C365.35805908 188.46124756 365.78643066 189.06702637 366.2277832 189.69116211 C367.05603677 190.86877307 367.86086288 192.06333027 368.63745117 193.27563477 C369.88116059 195.15342193 369.88116059 195.15342193 372.4375 197.25 C379.32399492 197.41630394 385.92414105 194.67769784 392.4375 192.625 C466.48817696 170.10883577 547.52192471 166.77473328 670.4375 192.25 C670.4375 313.69 670.4375 435.13 670.4375 560.25 C-121.5625 560.25 -913.5625 560.25 -1729.5625 560.25 C-1729.5625 405.81 -1729.5625 251.37 -1729.5625 92.25 C-1722.53007907 90.24073688 -1715.84910268 89.19307511 -1708.625 88.25 C-1707.42681641 88.085 -1706.22863281 87.92 -1704.99414062 87.75 C-1683.74537522 84.93297051 -1662.61513865 83.86910594 -1641.1875 83.9375 C-1639.35232315 83.94073273 -1639.35232315 83.94073273 -1637.48007202 83.94403076 C-1617.68549703 83.9997552 -1598.19228938 84.57286798 -1578.5625 87.25 C-1577.46600128 87.39918884 -1577.46600128 87.39918884 -1576.34735107 87.5513916 C-1495.53525466 98.69566636 -1418.09684418 127.66459159 -1351.5625 175.25 C-1350.77681641 175.81041992 -1349.99113281 176.37083984 -1349.18164062 176.94824219 C-1334.51911837 187.45618558 -1320.36785403 198.57912994 -1307.15234375 210.87109375 C-1305.76483097 212.14559644 -1304.37039369 213.41366962 -1302.9362793 214.63549805 C-1296.7269804 219.93001602 -1290.99060902 225.67032699 -1285.23510742 231.44702148 C-1283.503553 233.183936 -1281.76671641 234.91543889 -1280.02929688 236.64648438 C-1274.32779956 242.34420336 -1268.75133827 248.07424594 -1263.5625 254.25 C-1262.66199116 255.29473034 -1261.76097373 256.33902258 -1260.859375 257.3828125 C-1255.93982646 263.1625275 -1251.09738911 268.99518608 -1246.375 274.9375 C-1245.89321289 275.53771973 -1245.41142578 276.13793945 -1244.91503906 276.75634766 C-1241.5625 281.01394946 -1241.5625 281.01394946 -1241.5625 283.25 C-1240.60742554 283.39695312 -1240.60742554 283.39695312 -1239.63305664 283.546875 C-1231.87556788 284.83781906 -1224.49621285 286.89436636 -1217 289.25 C-1216.37444214 289.44563538 -1215.74888428 289.64127075 -1215.10437012 289.84283447 C-1191.0795374 297.38368022 -1167.10050309 306.56058369 -1144.76171875 318.23828125 C-1143.39539307 318.94984375 -1143.39539307 318.94984375 -1142.00146484 319.67578125 C-1140.29990191 320.57417105 -1138.60794994 321.4911051 -1136.92822266 322.4296875 C-1136.17460449 322.83058594 -1135.42098633 323.23148438 -1134.64453125 323.64453125 C-1133.67350464 324.18364136 -1133.67350464 324.18364136 -1132.68286133 324.73364258 C-1128.02153292 325.86878473 -1123.42661092 322.79129889 -1119.37890625 320.66796875 C-1068.3390888 294.29504993 -1013.2231183 276.76906159 -956.25 269 C-955.14462891 268.84885742 -954.03925781 268.69771484 -952.90039062 268.54199219 C-931.84798426 265.85432186 -910.83660715 264.86978108 -889.625 264.9375 C-888.42938446 264.93932281 -887.23376892 264.94114563 -886.00192261 264.94302368 C-866.36286027 264.99318377 -847.04213416 265.70453531 -827.5625 268.25 C-826.57745483 268.37728485 -826.57745483 268.37728485 -825.57250977 268.50714111 C-782.55929291 274.10541033 -738.05127448 284.01943322 -698.6340332 302.39477539 C-695.12932851 304.0002341 -695.12932851 304.0002341 -691.40234375 303.6796875 C-689.16386836 301.94023529 -687.07259938 300.12351952 -685 298.1875 C-679.68331 293.32608534 -674.19762065 288.73586338 -668.5625 284.25 C-667.92844238 283.74339844 -667.29438477 283.23679687 -666.64111328 282.71484375 C-603.88809847 232.73691904 -530.14905158 198.17695249 -451.5 182.375 C-450.77434845 182.22808716 -450.0486969 182.08117432 -449.30105591 181.92980957 C-441.83547914 180.43429018 -434.44838831 179.16493124 -426.859375 178.4609375 C-411.35456866 177.11509147 -411.35456866 177.11509147 -399.3125 168 C-397.80020425 166.11161543 -396.37380544 164.19236177 -394.98071289 162.21459961 C-389.81356885 155.05673972 -383.36265497 148.89542825 -377.125 142.6875 C-376.31740234 141.87603516 -375.50980469 141.06457031 -374.67773438 140.22851562 C-369.80137072 135.36001073 -364.79620269 130.72955125 -359.5625 126.25 C-358.37103915 125.20466932 -357.18090799 124.15782089 -355.9921875 123.109375 C-287.64575241 63.18608363 -203.22247411 22.91651409 0 0 Z " fill="#191919" transform="translate(1729.5625,588.75)"/>
</svg>
